HIERARCHY
ROOT Hips
{
	OFFSET 0.000000 0.000000 0.000000
	CHANNELS 6 Xposition Yposition Zposition Yrotation Xrotation Zrotation
	JOINT Chest
	{
		OFFSET 0.000000 -0.009281 11.569106
		CHANNELS 3 Yrotation Xrotation Zrotation
		JOINT Chest2
		{
			OFFSET -0.000000 0.016865 9.269641
			CHANNELS 3 Yrotation Xrotation Zrotation
			JOINT Chest3
			{
				OFFSET -0.000000 0.000001 8.374491
				CHANNELS 3 Yrotation Xrotation Zrotation
				JOINT Chest4
				{
					OFFSET -0.000000 0.000001 8.374493
					CHANNELS 3 Yrotation Xrotation Zrotation
					JOINT Neck
					{
						OFFSET -0.000000 0.000002 12.152554
						CHANNELS 3 Yrotation Xrotation Zrotation
						JOINT Head
						{
							OFFSET -0.000000 0.040101 7.802319
							CHANNELS 3 Yrotation Xrotation Zrotation
							End Site
							{
								OFFSET -0.000000 0.020947 14.853096
							}
						}
					}
					JOINT RightCollar
					{
						OFFSET 2.894404 0.000001 6.791374
						CHANNELS 3 Yrotation Xrotation Zrotation
						JOINT RightShoulder
						{
							OFFSET 13.574684 0.000001 0.000000
							CHANNELS 3 Yrotation Xrotation Zrotation
							JOINT RightElbow
							{
								OFFSET 23.923903 0.000002 0.000000
								CHANNELS 3 Yrotation Xrotation Zrotation
								JOINT RightWrist
								{
									OFFSET 19.846718 0.012767 0.000000
									CHANNELS 3 Yrotation Xrotation Zrotation
									End Site
									{
										OFFSET 14.973145 0.000001 0.000000
									}
								}
							}
						}
					}
					JOINT LeftCollar
					{
						OFFSET -2.894404 0.000001 6.791374
						CHANNELS 3 Yrotation Xrotation Zrotation
						JOINT LeftShoulder
						{
							OFFSET -13.574684 -0.000001 0.000000
							CHANNELS 3 Yrotation Xrotation Zrotation
							JOINT LeftElbow
							{
								OFFSET -23.923903 -0.000002 0.000000
								CHANNELS 3 Yrotation Xrotation Zrotation
								JOINT LeftWrist
								{
									OFFSET -19.846718 0.012763 0.000000
									CHANNELS 3 Yrotation Xrotation Zrotation
									End Site
									{
										OFFSET -14.973145 -0.000001 0.000000
									}
								}
							}
						}
					}
				}
			}
		}
	}
	JOINT RightHip
	{
		OFFSET 9.469263 0.004643 0.045487
		CHANNELS 3 Yrotation Xrotation Zrotation
		JOINT RightKnee
		{
			OFFSET 0.000000 0.002661 -40.478676
			CHANNELS 3 Yrotation Xrotation Zrotation
			JOINT RightAnkle
			{
				OFFSET 0.000000 0.049106 -35.224068
				CHANNELS 3 Yrotation Xrotation Zrotation
				JOINT RightToe
				{
					OFFSET -0.000001 12.539529 -6.151390
					CHANNELS 3 Yrotation Xrotation Zrotation
					End Site
					{
						OFFSET -0.000001 5.044994 -1.291870
					}
				}
			}
		}
	}
	JOINT LeftHip
	{
		OFFSET -9.469263 0.004641 0.045487
		CHANNELS 3 Yrotation Xrotation Zrotation
		JOINT LeftKnee
		{
			OFFSET 0.000000 0.002661 -40.478676
			CHANNELS 3 Yrotation Xrotation Zrotation
			JOINT LeftAnkle
			{
				OFFSET 0.000000 0.049106 -35.224068
				CHANNELS 3 Yrotation Xrotation Zrotation
				JOINT LeftToe
				{
					OFFSET -0.000001 12.539529 -6.151390
					CHANNELS 3 Yrotation Xrotation Zrotation
					End Site
					{
						OFFSET -0.000001 5.044994 -1.291870
					}
				}
			}
		}
	}
}
MOTION
Frames: 14
Frame Time: 0.016667
51.016838 1.947699 80.451286 -1.516685 4.131325 -80.964796 2.172282 -2.744290 -1.919653 1.061237 -1.139168 -0.799202 1.061236 -1.139168 -0.799201 0.794413 -0.855768 -0.597406 -2.905418 -13.833431 -4.558621 -7.276626 10.088619 -9.744421 9.229331 -0.636507 0.093625 80.324391 3.692867 13.918787 17.626217 9.080118 26.403044 -32.769646 36.370464 48.048817 -8.819716 -0.043433 3.178526 -77.059991 14.402680 1.939646 4.067090 17.997480 2.203798 11.593283 8.400196 -19.618282 -4.498658 24.307897 10.017964 -3.427521 -60.839049 1.089780 16.005374 -5.387920 4.580006 4.728965 14.665374 3.519480 -16.833133 -2.102776 -0.562230 -4.667218 -5.771000 11.737847 10.996863 6.041205 5.799637 -0.413521 0.027441 0.025793 
51.616714 2.100707 80.372765 -1.128291 3.957450 -80.449308 2.292398 -2.450562 -2.171818 1.034310 -1.067004 -0.947617 1.034310 -1.067004 -0.947618 0.774058 -0.801861 -0.708889 -2.874109 -13.852331 -4.407731 -7.157167 10.073002 -9.446349 9.252550 -0.423620 0.019117 80.100074 4.394806 12.100103 16.238327 9.133983 23.893177 -32.093877 36.034855 47.715326 -9.036589 -0.527087 2.602274 -77.030751 13.678657 0.366710 3.633483 17.850850 1.732646 11.617658 8.013560 -19.644637 -2.813456 26.182121 12.677244 -3.744411 -58.665868 2.097678 14.268987 -4.576193 3.138031 3.860754 16.141096 2.759004 -16.811088 -2.319612 -0.863770 -4.591918 -5.685075 11.635105 11.061922 6.660207 5.808259 -0.379941 -0.142145 -0.008587 
52.267262 2.263903 80.309959 -0.831029 3.910055 -79.806908 2.242740 -2.250220 -2.509120 1.020360 -0.983279 -1.087461 1.020360 -0.983279 -1.087460 0.763503 -0.739281 -0.813936 -2.807856 -13.884069 -4.296872 -6.986190 10.032809 -9.208760 9.288326 -0.355467 0.025414 79.877252 5.270615 10.295790 14.669260 9.154643 21.273323 -31.303088 35.514887 47.092604 -9.232152 -0.862719 2.162417 -76.982529 12.844748 -1.075944 3.152966 17.571485 1.188680 11.682890 7.539644 -19.800034 -1.183033 27.812593 15.295176 -3.363677 -56.409071 3.245578 12.523879 -3.675890 1.299081 3.099491 16.559345 2.111933 -16.866613 -2.695222 -1.132703 -4.491851 -5.600949 11.509519 11.023301 7.160326 5.686219 -0.322244 -0.170541 0.017791 
52.937042 2.393172 80.263145 -0.529950 3.790789 -79.109573 2.206894 -2.047398 -2.842468 1.016294 -0.901456 -1.223079 1.016296 -0.901456 -1.223077 0.760406 -0.678130 -0.915792 -2.709978 -13.901109 -4.226702 -6.773120 10.018591 -9.036950 9.353270 -0.312348 0.074091 79.598137 6.248203 8.507022 12.944969 9.207175 18.505622 -30.243825 34.781704 46.311585 -9.409841 -1.179281 1.818998 -76.974046 11.961201 -2.565786 2.628329 17.132257 0.566317 11.793079 7.114138 -20.020565 0.413210 29.169142 17.749543 -2.610240 -53.649845 4.061924 10.932495 -2.988912 -0.134681 2.301156 15.712268 1.478472 -16.805607 -3.060246 -1.317468 -4.388558 -5.553380 11.311967 10.953958 7.646402 5.422431 -0.285889 -0.171795 0.039279 
53.619423 2.480491 80.231880 -0.249972 3.614998 -78.326157 2.191618 -1.837057 -3.205568 1.023335 -0.825661 -1.371083 1.023335 -0.825661 -1.371082 0.765641 -0.621547 -1.026914 -2.591119 -13.906463 -4.185931 -6.533187 10.024887 -8.913417 9.442342 -0.260461 0.148593 79.178913 7.133603 6.764769 11.001311 9.371599 15.535019 -28.849729 33.856093 45.572115 -9.545759 -1.482035 1.547950 -77.052375 11.032711 -4.067367 2.062033 16.586373 -0.143276 11.918232 6.790432 -20.256552 1.763404 30.231305 19.880396 -1.722175 -50.279761 4.364277 9.728195 -2.621986 -0.822641 1.435946 13.488068 0.900414 -16.662583 -3.417517 -1.526189 -4.249574 -5.572911 11.080368 10.836669 8.142644 5.169101 -0.260561 -0.168740 0.077070 
54.317528 2.558416 80.215790 -0.110384 3.510105 -77.385476 2.096282 -1.724132 -3.659431 1.041576 -0.771116 -1.526268 1.041578 -0.771116 -1.526268 0.779249 -0.580945 -1.143374 -2.439929 -13.906040 -4.189854 -6.250355 10.040526 -8.861909 9.562039 -0.080262 0.175550 78.639765 7.825559 4.977273 8.754894 9.534921 12.389669 -27.370639 32.781244 44.801174 -9.676256 -1.813622 1.221101 -77.191642 10.103375 -5.580913 1.453171 16.047164 -0.966261 12.009279 6.496295 -20.480613 2.664884 30.998137 21.428291 -0.756888 -46.559928 3.915793 8.944691 -2.573562 -0.644387 0.509732 9.887296 0.437072 -16.540488 -3.938658 -1.881383 -4.087691 -5.615446 10.865555 10.704360 8.583387 4.967812 -0.254875 -0.123488 0.118527 
55.037254 2.567098 80.205818 -0.011207 3.099324 -76.571933 2.257339 -1.533177 -3.913069 1.074546 -0.727787 -1.675383 1.074546 -0.727787 -1.675385 0.803911 -0.548793 -1.255246 -2.249816 -13.921986 -4.243643 -5.912068 10.024808 -8.887539 9.713269 0.065110 0.178168 77.984621 8.498717 3.255532 6.351481 9.548007 9.131350 -26.130443 31.672769 43.583116 -9.775262 -2.285737 0.851623 -77.430726 9.158374 -7.199409 0.792984 15.598291 -1.896877 12.008681 6.077776 -20.664365 3.544886 31.351398 22.587668 0.271627 -41.765876 2.483396 8.398851 -3.111942 0.459695 -0.385799 4.588084 0.085412 -16.086648 -4.406324 -2.181661 -3.919044 -5.677821 10.739461 10.592473 9.157823 4.777741 -0.302218 -0.184949 0.071042 
55.828106 2.593019 80.204727 -0.098685 2.775245 -75.676283 2.348093 -1.462774 -4.185864 1.120160 -0.699356 -1.807101 1.120161 -0.699357 -1.807101 0.838051 -0.527836 -1.354032 -2.019644 -13.961328 -4.354933 -5.518578 9.964308 -9.003744 9.875213 0.198910 0.174101 77.158748 9.321096 1.566656 3.971804 9.398941 5.878930 -24.860166 30.495678 41.542365 -9.849642 -2.858997 0.418789 -77.724397 8.161682 -8.896930 0.070148 15.305974 -2.897776 11.914627 5.451807 -20.765870 4.075593 31.378152 23.168651 1.187098 -36.769449 0.605857 7.938839 -3.937095 2.157780 -0.212442 0.162221 -0.009055 -15.667872 -5.142638 -2.519612 -3.713011 -5.696750 10.677636 10.420692 9.710373 4.527057 -0.333047 -0.203014 0.057499 
56.676880 2.629904 80.211952 -0.257064 2.484255 -74.717967 2.427893 -1.409559 -4.455692 1.161997 -0.674733 -1.932626 1.161997 -0.674733 -1.932627 0.869365 -0.509732 -1.448178 -1.760864 -14.027079 -4.504884 -5.083875 9.854242 -9.179447 10.013956 0.215421 0.178588 76.213614 10.353494 0.004599 1.629317 9.245687 2.790455 -22.969445 28.827302 38.603085 -9.958680 -3.280424 0.026240 -77.930525 7.029643 -10.429912 -0.722871 15.090210 -3.943043 11.748336 4.677749 -20.744080 4.331069 31.042974 23.117091 1.752663 -31.449582 -0.944132 7.760927 -4.943372 3.832732 -0.249975 -3.020596 -0.097565 -15.256877 -6.031197 -2.857416 -3.434871 -5.638109 10.563992 10.204388 10.186352 4.221643 -0.368647 -0.176786 0.034804 
57.586590 2.663796 80.227631 -0.450579 2.215833 -73.660858 2.528303 -1.339579 -4.727148 1.190939 -0.641112 -2.065584 1.190940 -0.641112 -2.065583 0.891039 -0.484868 -1.547928 -1.481351 -14.126003 -4.686471 -4.619458 9.682085 -9.404121 10.133859 0.218564 0.166744 75.141343 11.405876 -1.564722 -0.657989 9.257945 -0.126706 -20.403732 26.665313 35.191105 -10.103568 -3.538738 -0.280841 -78.032247 5.749504 -11.762679 -1.543021 14.809008 -5.021142 11.440188 3.874221 -20.536284 4.393966 30.412882 22.382800 1.750040 -26.085403 -2.124460 7.700551 -6.140131 5.814077 -0.211126 -5.230517 -0.176407 -14.811945 -6.991799 -3.160572 -3.141461 -5.577082 10.381128 9.947073 10.581151 3.892647 -0.399976 -0.070165 0.011276 
58.547150 2.700150 80.254204 -0.673556 2.001440 -72.450234 2.618953 -1.239637 -5.009536 1.203220 -0.590412 -2.218696 1.203219 -0.590412 -2.218697 0.900277 -0.447186 -1.662855 -1.176745 -14.271982 -4.905410 -4.118079 9.422247 -9.685971 10.231254 0.278651 0.171314 73.891165 12.594007 -3.271474 -2.858408 9.001109 -2.900516 -17.586485 24.255190 31.693802 -10.281222 -3.705526 -0.553489 -78.077607 4.391678 -12.870213 -2.287435 14.391299 -6.187581 10.888083 3.019173 -20.080645 4.314636 29.433184 21.282895 1.185236 -20.867526 -2.917462 7.506393 -7.314232 7.873779 0.243647 -6.740442 -0.261461 -14.345945 -8.009997 -3.446353 -2.849254 -5.581734 10.150751 9.650060 10.980576 3.493319 -0.430227 0.066985 -0.022581 
59.550900 2.738026 80.294586 -0.928787 1.790741 -70.991811 2.704011 -1.086414 -5.361811 1.205261 -0.537861 -2.392906 1.205261 -0.537862 -2.392907 0.901849 -0.408125 -1.793614 -0.828604 -14.460648 -5.174758 -3.550523 9.083698 -10.043132 10.295817 0.643426 0.052252 72.315782 13.823126 -5.348838 -4.839190 7.880601 -5.393662 -14.824601 21.785358 28.324065 -10.462134 -3.757988 -0.864675 -78.091554 2.997907 -13.756991 -2.931140 13.897171 -7.420464 10.115132 2.049811 -19.438070 4.131755 27.988993 20.037132 0.393097 -15.814996 -2.567025 7.117258 -8.043950 8.745960 1.072274 -7.808148 -0.356427 -13.789784 -9.051946 -3.794308 -2.506795 -5.663985 9.871608 9.259594 11.339974 2.911744 -0.452266 0.228908 -0.038808 
60.611286 2.789132 80.352905 -1.239024 1.555448 -69.379190 2.772909 -0.945120 -5.711186 1.208226 -0.488800 -2.571110 1.208224 -0.488800 -2.571107 0.904126 -0.371693 -1.927362 -0.426383 -14.673686 -5.500908 -2.901055 8.701198 -10.485326 10.351099 1.422547 -0.176040 70.293759 14.949821 -8.000605 -6.364773 5.722374 -7.367399 -12.388076 19.403917 25.127738 -10.638009 -3.608920 -1.201160 -78.083337 1.595433 -14.397269 -3.517415 13.299519 -8.654392 9.316671 1.109307 -18.782202 4.062732 26.027783 19.199187 -0.418560 -10.977232 -0.773413 6.879292 -8.337280 7.806338 1.844847 -8.288751 -0.431054 -13.120036 -10.085293 -4.168067 -2.144995 -5.901886 9.574639 8.831613 11.686360 2.241837 -0.490740 0.433567 -0.063537 
61.727779 2.881114 80.432358 -1.612376 1.356539 -67.670885 2.772243 -0.881262 -6.066186 1.224411 -0.452602 -2.728504 1.224411 -0.452602 -2.728502 0.916304 -0.344927 -2.045471 0.018551 -14.882436 -5.880590 -2.192199 8.327440 -11.013046 10.364191 2.219588 -0.377728 67.866132 15.828748 -10.880298 -7.272796 2.810032 -8.800991 -10.279554 17.262723 22.205449 -10.839869 -3.291049 -1.565301 -78.004893 0.214886 -14.900768 -4.110017 12.602187 -9.791230 8.643304 0.438352 -18.243731 4.115668 24.061148 19.395082 -1.102190 -7.389492 0.849367 6.981559 -8.084248 6.241341 2.248453 -8.113835 -0.447318 -12.399685 -11.127999 -4.633111 -1.804299 -6.265465 9.370290 8.429917 11.852629 1.508462 -0.559951 0.808189 -0.083232 
